<?xml version="1.0" standalone="no"?>
<!DOCTYPE svg PUBLIC "-//W3C//DTD SVG 20010904//EN"
 "http://www.w3.org/TR/2001/REC-SVG-20010904/DTD/svg10.dtd">
<svg version="1.0" xmlns="http://www.w3.org/2000/svg"
 width="112.000000pt" height="112.000000pt" viewBox="0 0 112.000000 112.000000"
 preserveAspectRatio="xMidYMid meet">
<metadata>
Created by potrace 1.14, written by Peter Selinger 2001-2017
</metadata>
<g transform="translate(0.000000,112.000000) scale(0.100000,-0.100000)"
fill="#000000" stroke="none">
<path d="M588 1095 c2 -14 0 -25 -5 -25 -5 0 -16 -13 -26 -29 -14 -24 -15 -34
-6 -55 7 -14 17 -26 23 -26 6 0 5 -5 -2 -12 -15 -15 -16 -32 -1 -23 6 4 17 -1
25 -11 9 -11 12 -13 9 -6 -4 7 -9 26 -12 43 -3 22 0 29 11 29 9 0 16 -3 16 -7
0 -5 13 -17 29 -28 22 -14 27 -23 19 -32 -6 -7 -7 -13 -2 -14 5 0 0 -4 -11 -8
-14 -6 -22 -4 -27 8 -3 9 -5 -6 -3 -32 2 -27 6 -52 10 -55 4 -4 6 0 4 8 -4 22
10 60 23 60 7 0 7 -4 -1 -14 -6 -7 -10 -25 -9 -39 2 -23 4 -25 18 -12 9 8 20
12 24 8 3 -4 15 -7 26 -8 16 -1 17 1 8 13 -9 10 -13 11 -16 3 -3 -8 -9 -5 -18
6 -8 11 -13 13 -14 6 0 -7 -4 -13 -9 -13 -19 0 -3 33 17 37 14 2 20 -2 16 -10
-3 -8 2 -14 11 -15 48 -6 46 -4 30 -29 -9 -13 -13 -28 -10 -33 3 -6 -2 -10
-12 -10 -14 0 -15 -2 -5 -9 11 -7 11 -9 -2 -14 -8 -3 -14 -15 -13 -26 0 -11 5
-17 9 -15 4 3 8 -2 8 -11 0 -11 -5 -15 -14 -12 -17 7 -12 -13 13 -51 19 -30
21 -70 3 -84 -7 -6 -12 -7 -11 -2 4 22 -2 33 -15 28 -7 -3 -16 2 -20 11 -3 9
-2 13 4 10 6 -3 10 -2 10 3 0 17 -13 22 -27 10 -7 -6 -16 -8 -20 -4 -3 3 -1 6
5 6 7 0 12 7 12 15 0 18 -21 20 -38 3 -18 -18 -28 0 -13 25 13 20 13 21 -2 9
-9 -8 -22 -10 -29 -6 -10 6 -10 5 -1 -7 10 -12 8 -14 -10 -13 -12 1 -33 6 -47
12 -30 12 -60 -1 -60 -26 0 -14 -2 -15 -10 -2 -6 10 -5 17 4 22 16 9 14 36 -3
63 -9 15 -11 16 -7 3 10 -32 -19 -19 -46 20 -15 22 -16 22 -21 2 -3 -11 0 -23
5 -27 7 -3 8 -1 4 5 -4 7 -2 12 4 12 7 0 9 -8 4 -22 -9 -29 -26 -41 -36 -25
-11 17 -9 -23 3 -48 8 -18 8 -18 6 4 -2 20 3 25 27 28 24 3 27 2 18 -10 -7 -8
-8 -18 -4 -23 4 -4 -2 -2 -12 6 -18 14 -19 13 -13 -2 4 -12 0 -21 -14 -28 -11
-6 -18 -14 -15 -18 2 -4 -4 -8 -15 -8 -10 0 -19 5 -19 11 0 5 -5 2 -11 -8 -6
-9 -15 -14 -21 -11 -6 4 -8 3 -5 -3 4 -6 0 -16 -8 -23 -32 -27 -50 -84 -49
-157 1 -69 -6 -87 -22 -61 -5 7 -2 9 7 4 8 -4 1 4 -14 18 -28 26 -28 27 -24
129 2 57 7 109 11 115 4 7 2 12 -5 12 -8 0 -9 3 0 14 7 8 9 31 5 59 -6 42 -5
46 15 44 11 -1 21 -5 21 -9 0 -4 5 -8 12 -8 6 0 2 10 -10 23 -12 13 -22 27
-22 31 0 4 -7 14 -15 22 -8 9 -15 22 -15 31 0 13 3 13 15 3 8 -7 12 -16 9 -21
-3 -5 1 -12 10 -15 8 -3 13 -11 10 -19 -3 -7 2 -15 10 -18 11 -4 13 -1 9 10
-5 13 -2 15 13 10 17 -6 17 -6 3 5 -9 7 -15 19 -13 26 1 7 0 8 -3 2 -6 -13
-23 -13 -23 0 0 5 12 17 28 25 15 9 19 14 10 11 -10 -3 -18 -1 -18 4 0 6 -7
10 -16 10 -10 0 -14 -6 -10 -15 3 -8 2 -15 -3 -15 -10 0 -36 29 -27 31 3 1 11
3 16 4 6 1 15 3 21 4 5 0 8 4 5 9 -2 4 2 16 10 27 8 10 14 13 14 6 0 -7 5 -9
10 -6 6 4 8 11 5 16 -4 5 5 9 19 9 17 0 26 6 26 16 0 8 4 12 10 9 15 -9 12 15
-4 31 -8 8 -19 14 -25 14 -6 0 -11 5 -11 11 0 5 -4 8 -9 4 -6 -3 -20 8 -32 25
-26 35 -47 38 -77 10 -18 -17 -21 -32 -21 -88 -1 -108 -1 -109 -22 -83 -10 12
-31 23 -47 24 -17 1 -28 5 -26 8 3 6 -19 19 -32 19 -2 0 -4 -205 -4 -455 l0
-455 91 0 c88 0 90 1 87 22 -2 18 1 22 17 20 18 -3 18 -2 4 10 -21 16 -32 85
-16 92 9 3 8 7 -1 14 -17 11 -11 88 6 85 17 -4 15 17 -3 23 -20 8 -20 54 1 54
8 0 12 -5 9 -10 -9 -15 5 -51 17 -44 7 4 8 2 4 -4 -4 -7 -3 -12 2 -12 5 0 9
-7 9 -15 0 -8 -4 -15 -9 -15 -4 0 -8 -8 -7 -17 0 -11 3 -13 6 -5 9 23 20 12
21 -23 1 -30 -2 -35 -21 -36 -18 -1 -19 -2 -4 -6 24 -6 67 5 67 17 0 5 -7 7
-15 4 -12 -5 -14 2 -12 37 2 40 4 44 27 41 39 -4 50 -10 50 -29 1 -10 14 -34
30 -53 31 -36 37 -56 20 -62 -9 -3 -15 -25 -19 -70 -1 -5 -6 -8 -12 -8 -6 0
-9 7 -5 15 3 9 -1 16 -9 16 -8 1 -19 3 -25 4 -5 1 -16 3 -22 4 -10 1 -10 3 0
10 7 4 14 21 16 37 1 16 6 36 11 44 8 13 6 13 -8 1 -9 -7 -14 -17 -11 -22 3
-5 0 -9 -5 -9 -6 0 -11 5 -11 10 0 7 -6 7 -19 0 -11 -5 -26 -8 -33 -7 -7 2
-10 2 -5 0 4 -3 4 -9 1 -15 -4 -6 0 -14 7 -19 11 -7 12 -12 1 -29 -7 -12 -8
-20 -2 -20 5 0 10 -7 10 -15 0 -21 37 -19 49 3 10 16 10 16 11 0 0 -16 12 -18
115 -16 116 2 122 4 116 41 0 4 4 7 9 7 6 0 13 1 16 3 4 1 10 -8 15 -20 6 -18
5 -23 -7 -23 -9 0 -12 5 -8 12 4 7 3 8 -4 4 -31 -19 4 -24 194 -25 129 -1 203
2 200 8 -3 5 0 12 6 15 7 3 1 5 -13 3 -16 -2 -26 1 -26 9 0 7 5 10 10 7 5 -3
7 0 5 8 -3 8 -10 13 -15 12 -5 -1 -8 13 -8 30 0 18 -4 38 -9 45 -5 7 -4 18 4
27 10 12 9 15 -5 15 -11 0 -15 5 -11 15 3 8 1 15 -5 15 -6 0 -7 6 -1 16 11 20
4 56 -9 48 -5 -3 -9 -1 -9 5 0 5 8 12 18 14 16 4 16 5 0 6 -10 0 -18 6 -18 11
0 6 -5 10 -11 10 -5 0 -7 -5 -3 -12 4 -6 3 -8 -3 -5 -8 5 -11 62 -3 62 1 0 3
11 6 24 2 14 10 31 17 40 9 12 9 13 0 7 -9 -5 -11 -2 -7 8 3 9 11 13 17 9 6
-3 7 -1 3 5 -4 7 -14 12 -22 12 -8 0 -14 5 -14 11 0 5 5 7 10 4 6 -3 10 -1 10
4 0 6 14 11 30 11 30 0 31 1 29 45 -2 25 -7 45 -13 45 -5 0 -6 3 -3 7 4 3 -2
12 -13 20 -11 8 -20 23 -20 33 0 10 -7 26 -16 35 -14 13 -14 18 -2 32 11 14
11 16 -1 8 -11 -6 -13 -3 -9 13 4 12 3 22 -2 22 -4 0 -10 7 -14 15 -5 13 -3
13 18 0 21 -14 36 -12 36 6 0 5 -6 6 -14 3 -10 -4 -12 2 -9 20 3 16 1 26 -6
26 -6 0 -11 -4 -11 -8 0 -5 -6 -9 -13 -9 -8 0 -14 6 -14 13 0 7 3 11 7 9 4 -3
16 5 26 18 10 12 12 16 4 10 -16 -14 -31 -17 -29 -5 5 33 -8 57 -38 66 -17 6
-23 3 -23 -8 0 -9 -4 -16 -9 -16 -4 0 -8 25 -7 56 0 42 -4 59 -17 69 -18 13
-24 31 -8 20 10 -5 -1 44 -14 65 -3 5 -32 10 -64 10 -57 0 -58 -1 -53 -25z
m61 -38 c-8 -13 -14 -16 -21 -9 -13 13 -4 29 16 29 12 0 13 -5 5 -20z m-419
-63 c0 -3 -7 -12 -15 -20 -8 -9 -15 -13 -15 -11 0 3 -3 12 -6 21 -4 12 0 16
15 16 12 0 21 -3 21 -6z m480 -57 c14 4 19 0 17 -15 0 -12 -6 -18 -14 -15 -7
3 -13 -2 -13 -10 0 -21 -17 -31 -26 -16 -4 8 -3 9 4 5 7 -4 12 -2 12 3 0 6 -5
11 -12 11 -9 0 -9 3 -1 11 6 6 10 17 9 23 -2 6 -1 8 1 5 2 -4 12 -5 23 -2z
m95 -85 c-3 -3 -11 0 -18 7 -9 10 -8 11 6 5 10 -3 15 -9 12 -12z m-628 -114
c-3 -8 -6 -5 -6 6 -1 11 2 17 5 13 3 -3 4 -12 1 -19z m553 -72 c0 -3 -4 -8
-10 -11 -5 -3 -10 -1 -10 4 0 6 5 11 10 11 6 0 10 -2 10 -4z m-175 -66 c-3 -5
-12 -10 -18 -10 -7 0 -6 4 3 10 19 12 23 12 15 0z m65 -6 c0 -8 -19 -13 -24
-6 -3 5 1 9 9 9 8 0 15 -2 15 -3z m-104 -47 c4 -3 -4 -4 -16 -2 -30 6 -40 16
-12 12 12 -2 24 -6 28 -10z m38 -9 c-3 -4 -9 -8 -15 -8 -5 0 -9 4 -9 8 0 5 7
9 15 9 8 0 12 -4 9 -9z m-170 -29 c3 -3 -4 -5 -14 -6 -11 -1 -20 2 -20 7 0 8
25 8 34 -1z m77 2 c-8 -5 -9 -11 -3 -15 5 -3 15 1 22 9 7 8 17 15 23 15 6 0 2
-6 -8 -14 -16 -12 -17 -16 -6 -30 9 -11 10 -16 2 -16 -7 0 -9 -10 -6 -27 5
-26 5 -26 -4 -5 -6 12 -8 28 -5 36 3 9 -3 17 -15 21 -28 9 -26 35 3 35 6 0 5
-4 -3 -9z m89 -21 c0 -5 -4 -10 -10 -10 -5 0 -10 5 -10 10 0 6 5 10 10 10 6 0
10 -4 10 -10z m-147 -22 c-2 -5 0 -8 6 -8 5 0 13 5 16 10 3 6 12 10 18 10 8 0
7 -3 -2 -9 -11 -7 -11 -9 0 -14 11 -5 10 -8 -3 -17 -9 -6 -25 -18 -34 -28 -16
-16 -17 -16 -12 0 4 9 2 19 -5 22 -9 3 -8 7 2 14 10 7 7 12 -15 20 l-29 10 32
-1 c17 -1 29 -5 26 -9z m147 -13 c0 -12 -19 -12 -23 0 -4 9 -1 12 9 8 7 -3 14
-7 14 -8z m-355 -115 c3 -5 1 -10 -4 -10 -6 0 -11 5 -11 10 0 6 2 10 4 10 3 0
8 -4 11 -10z m100 -98 c-3 -3 -11 0 -18 7 -9 10 -8 11 6 5 10 -3 15 -9 12 -12z
m65 -57 c5 3 14 -5 21 -17 12 -22 12 -22 -11 -7 -13 9 -25 21 -26 28 -1 6 0 7
3 1 2 -5 9 -8 13 -5z m131 -22 c13 -16 12 -17 -3 -4 -17 13 -22 21 -14 21 2 0
10 -8 17 -17z m19 -27 c0 -2 -8 -10 -17 -17 -16 -13 -17 -12 -4 4 13 16 21 21
21 13z m57 -59 c16 -19 16 -20 1 -8 -13 10 -18 10 -18 2 0 -7 -4 -10 -9 -7 -5
3 -14 -1 -21 -9 -10 -12 -10 -15 1 -15 8 -1 -1 -7 -20 -16 -19 -8 -36 -12 -38
-10 -3 2 5 7 16 11 25 8 28 35 4 36 -15 0 -15 2 2 8 11 5 24 6 29 3 5 -3 7 1
4 9 -9 24 28 20 49 -4z m29 -47 c0 -12 -4 -16 -9 -11 -5 5 -6 14 -3 20 10 15
12 14 12 -9z m29 -10 c3 -5 1 -10 -4 -10 -6 0 -11 5 -11 10 0 6 2 10 4 10 3 0
8 -4 11 -10z"/>
<path d="M410 450 c-8 -5 -11 -12 -7 -16 4 -4 13 -2 19 4 6 6 10 14 7 16 -2 3
-11 1 -19 -4z"/>
<path d="M443 893 c-18 -7 -16 -23 2 -23 8 0 15 7 15 15 0 8 -1 15 -2 14 -2 0
-9 -3 -15 -6z"/>
<path d="M474 889 c-3 -6 0 -15 7 -20 19 -12 29 -11 29 1 0 6 -7 10 -16 10 -8
0 -12 5 -9 10 3 6 4 10 1 10 -3 0 -8 -5 -12 -11z"/>
<path d="M396 873 c-8 -9 -36 -72 -36 -82 0 -3 5 1 10 9 6 9 10 11 10 3 0 -7
7 -10 15 -7 18 7 20 -7 3 -26 -11 -12 -10 -12 5 -1 9 7 17 20 17 28 0 8 8 13
18 11 11 -2 16 3 14 15 -2 12 4 17 18 17 12 0 19 4 15 9 -3 6 -14 8 -25 6 -10
-2 -24 3 -31 11 -13 16 -22 18 -33 7z m20 -30 c13 -17 14 -17 8 2 -5 16 -4 17
4 5 11 -15 7 -30 -8 -30 -5 0 -14 9 -20 20 -13 25 -2 26 16 3z"/>
<path d="M580 876 c0 -2 8 -10 18 -17 15 -13 16 -12 3 4 -13 16 -21 21 -21 13z"/>
<path d="M507 836 c-4 -10 -3 -15 3 -11 6 3 10 1 10 -6 0 -7 3 -10 6 -6 3 3 2
13 -4 22 -8 16 -9 16 -15 1z"/>
<path d="M266 798 c3 -5 10 -6 15 -3 13 9 11 12 -6 12 -8 0 -12 -4 -9 -9z"/>
<path d="M301 794 c0 -11 3 -14 6 -6 3 7 2 16 -1 19 -3 4 -6 -2 -5 -13z"/>
<path d="M496 793 c-6 -14 -5 -15 5 -6 7 7 10 15 7 18 -3 3 -9 -2 -12 -12z"/>
<path d="M448 787 c-15 -12 -15 -14 2 -25 13 -8 21 -8 25 -2 4 6 3 10 -2 9
-20 -3 -25 2 -13 16 15 18 11 19 -12 2z"/>
<path d="M599 783 c-13 -16 -12 -17 4 -4 9 7 17 15 17 17 0 8 -8 3 -21 -13z"/>
<path d="M514 755 c1 -8 6 -18 11 -22 4 -4 5 -3 2 4 -4 6 -2 13 5 15 8 3 6 6
-4 10 -10 4 -15 2 -14 -7z"/>
<path d="M460 729 c0 -5 5 -7 10 -4 6 3 10 8 10 11 0 2 -4 4 -10 4 -5 0 -10
-5 -10 -11z"/>
<path d="M491 708 c-12 -19 -11 -20 9 -15 17 4 20 2 15 -11 -5 -13 -3 -14 6
-5 9 9 8 16 -3 32 l-14 20 -13 -21z"/>
<path d="M305 710 c-4 -6 -4 -14 -1 -17 3 -4 6 -1 6 6 0 7 4 10 10 6 5 -3 7
-12 3 -20 -3 -8 -3 -15 0 -15 3 0 7 6 10 14 7 19 -18 42 -28 26z"/>
<path d="M561 694 c0 -11 3 -14 6 -6 3 7 2 16 -1 19 -3 4 -6 -2 -5 -13z"/>
<path d="M244 670 c0 -11 6 -22 12 -24 7 -3 10 3 7 15 -7 26 -19 32 -19 9z"/>
<path d="M335 615 c0 -25 9 -33 19 -16 3 4 0 16 -7 25 -11 14 -12 13 -12 -9z"/>
<path d="M898 623 c7 -3 16 -2 19 1 4 3 -2 6 -13 5 -11 0 -14 -3 -6 -6z"/>
<path d="M1025 520 c4 -6 11 -8 16 -5 14 9 11 15 -7 15 -8 0 -12 -5 -9 -10z"/>
<path d="M917 104 c-8 -8 3 -34 15 -34 7 0 6 5 -1 13 -6 8 -8 17 -4 20 3 4 4
7 1 7 -2 0 -7 -3 -11 -6z"/>
<path d="M1070 51 c0 -7 -5 -9 -12 -5 -7 5 -8 3 -3 -5 5 -9 10 -10 18 -2 6 6
8 14 4 18 -4 3 -7 1 -7 -6z"/>
<path d="M1080 10 c0 -5 9 -10 21 -10 11 0 17 4 14 10 -8 13 -35 13 -35 0z"/>
</g>
</svg>
