<?xml version="1.0" standalone="no"?>
<!DOCTYPE svg PUBLIC "-//W3C//DTD SVG 20010904//EN"
 "http://www.w3.org/TR/2001/REC-SVG-20010904/DTD/svg10.dtd">
<svg version="1.0" xmlns="http://www.w3.org/2000/svg"
 width="80.000000pt" height="80.000000pt" viewBox="0 0 80.000000 80.000000"
 preserveAspectRatio="xMidYMid meet">
<metadata>
Created by potrace 1.14, written by Peter Selinger 2001-2017
</metadata>
<g transform="translate(0.000000,80.000000) scale(0.100000,-0.100000)"
fill="#000000" stroke="none">
<path d="M186 766 c-55 -19 -118 -47 -140 -63 l-41 -29 -3 -162 -2 -161 24
-16 c17 -12 35 -14 62 -9 l37 7 -19 -26 c-10 -14 -38 -33 -61 -42 l-43 -17 0
-124 0 -124 400 0 400 0 0 139 0 138 -44 41 c-46 42 -48 52 -10 52 42 0 54 25
54 107 0 66 -4 83 -30 129 l-29 53 29 6 c22 5 30 12 30 29 0 15 -6 22 -20 22
-11 0 -20 -4 -20 -8 0 -4 -12 -8 -26 -8 -14 0 -23 -4 -20 -9 10 -16 -68 17
-94 40 -36 32 -75 46 -163 58 -123 17 -164 14 -271 -23z m-113 -150 c3 -8 -5
-18 -19 -25 -26 -11 -26 -6 -1 27 12 15 14 15 20 -2z m157 4 c0 -5 -9 -10 -19
-10 -35 0 -73 -19 -64 -32 11 -19 12 -37 2 -44 -14 -8 -11 -24 5 -24 12 0 12
-8 0 -55 -14 -51 -13 -57 5 -94 21 -41 41 -54 66 -45 14 6 18 16 13 30 -5 10
34 26 42 18 4 -5 11 -23 14 -40 8 -35 -12 -64 -44 -64 -10 0 -21 -6 -23 -12
-3 -8 -6 -5 -6 6 -1 18 -64 86 -80 86 -21 0 -32 61 -27 155 3 54 7 99 8 100
43 29 57 35 80 35 16 0 28 -4 28 -10z m460 -5 c7 -8 8 -15 2 -15 -5 0 -15 7
-22 15 -7 8 -8 15 -2 15 5 0 15 -7 22 -15z m-364 -92 c-2 -10 -7 -33 -11 -50
-5 -26 -12 -33 -31 -33 l-24 0 20 33 c11 17 23 40 26 50 4 9 11 17 16 17 5 0
7 -8 4 -17z"/>
<path d="M760 787 c0 -7 -9 -18 -21 -25 -27 -17 -17 -27 27 -27 31 0 34 2 34
30 0 24 -5 31 -20 32 -11 1 -20 -4 -20 -10z"/>
</g>
</svg>
